<svg width="44" height="44" viewBox="0 0 44 44" fill="none" xmlns="http://www.w3.org/2000/svg">
<circle cx="21.6288" cy="21.6288" r="21.6288" fill="url(#paint0_linear_7213_97)"/>
<path d="M21.6288 29.4122C22.661 29.4122 23.6509 29.8222 24.3808 30.5521C25.1107 31.282 25.5207 32.2719 25.5207 33.3041C25.5207 34.3363 25.1107 35.3262 24.3808 36.0561C23.6509 36.786 22.661 37.196 21.6288 37.196C20.5966 37.196 19.6066 36.786 18.8768 36.0561C18.1469 35.3262 17.7368 34.3363 17.7368 33.3041C17.7368 32.2719 18.1469 31.282 18.8768 30.5521C19.6066 29.8222 20.5966 29.4122 21.6288 29.4122ZM21.6288 6.06055C23.3491 6.06055 24.999 6.74395 26.2155 7.96042C27.4319 9.17688 28.1153 10.8268 28.1153 12.5471C28.1153 13.2451 27.9519 14.1778 27.7209 15.1677C27.454 16.2806 27.1502 17.3843 26.8102 18.4771C26.1657 20.5543 25.4706 22.6155 24.7255 24.6588C24.4942 25.2936 24.0727 25.8416 23.5185 26.2279C22.9643 26.6142 22.3044 26.8202 21.6288 26.8175C20.9532 26.8202 20.2933 26.6142 19.739 26.2279C19.1848 25.8416 18.7633 25.2936 18.5321 24.6588C17.787 22.6155 17.0918 20.5543 16.4473 18.4771C16.1074 17.3847 15.8036 16.2814 15.5366 15.169C15.3057 14.1778 15.1422 13.2451 15.1422 12.5471C15.1422 10.8268 15.8256 9.17688 17.0421 7.96042C18.2585 6.74395 19.9084 6.06055 21.6288 6.06055Z" fill="white"/>
<defs>
<linearGradient id="paint0_linear_7213_97" x1="21.6288" y1="0" x2="21.6288" y2="43.2576" gradientUnits="userSpaceOnUse">
<stop stop-color="#169EFE"/>
<stop offset="1" stop-color="#23DEFF"/>
</linearGradient>
</defs>
</svg>
